<?xml version="1.0" encoding="UTF-8"?>
<svg width="512px" height="512px" viewBox="0 0 512 512" xmlns="http://www.w3.org/2000/svg" xmlns:xlink="http://www.w3.org/1999/xlink" version="1.1">
 <!-- Generated by Pixelmator Pro 2.0.6 -->
 <defs>
  <path id="타원" d="M512 256 C512 114.615 397.385 0 256 0 114.615 0 0 114.615 0 256 0 397.385 114.615 512 256 512 397.385 512 512 397.385 512 256 Z"/>
 </defs>
 <use id="타원-1" xlink:href="#타원" fill="#ffffff" fill-opacity="1" stroke="none"/>
 <defs>
  <path id="stroke-path" d="M500.391 184.766 L496.641 172.953 492.25 161.219 487.391 149.891 481.969 138.813 475.219 126.641 468.75 116.297 461.734 106.172 454.344 96.516 446.453 87.172 438.125 78.25 429.391 69.719 420.188 61.563 420.188 61.547 405.828 50.25 405.828 50.266 395.703 43.25 385.375 36.781 385.375 36.797 367.656 27.25 347.922 18.609 327.125 11.578 305.766 6.375 283.656 3 260.891 1.547 241.344 1.922 218.75 4.219 196.953 8.375 175.906 14.359 155.438 22.141 136.063 31.484 126.625 36.781 116.297 43.234 101.234 53.938 91.797 61.563 82.594 69.719 73.859 78.25 65.578 87.125 53.922 101.266 46.672 111.219 39.922 121.453 30.063 138.719 20.859 158.438 13.422 178.766 7.672 200.047 3.734 222.063 1.75 244.594 1.625 264.156 3.328 286.766 7 308.906 12.453 330.125 19.75 350.828 28.625 370.469 33.672 379.984 39.922 390.547 50.266 405.859 50.25 405.859 57.641 415.5 65.531 424.844 73.859 433.766 82.578 442.281 96.516 454.359 96.516 454.375 106.156 461.75 116.281 468.766 126.625 475.234 136.063 480.531 155.438 489.875 175.906 497.656 196.953 503.641 218.75 507.797 241.344 510.094 260.891 510.469 283.656 509.016 305.766 505.641 327.109 500.438 347.922 493.406 367.656 484.766 385.375 475.219 400.781 465.328 410.734 458.078 420.188 450.453 429.344 442.344 438.125 433.766 446.406 424.891 454.297 415.563 461.734 405.844 468.703 395.797 478.281 380.047 483.328 370.531 488.656 359.297 496.594 339.172 502.859 318.141 506.797 299.438 509.625 277.266 510.5 256.031 510.234 244.578 509.328 231.563 509.344 231.563 507.813 218.859 505.625 206.234 Z"/>
 </defs>
 <use id="타원-2" stroke="#ffffff" stroke-opacity="1" stroke-linecap="round" fill="none" stroke-width="3" xlink:href="#stroke-path"/>
 <g id="react">
  <path id="경로" d="M-0.062 255.334 C-0.062 294.005 37.7 330.105 97.232 350.454 85.344 410.303 95.103 458.542 127.695 477.338 161.194 496.659 211.102 483.285 258.473 441.876 304.647 481.613 351.313 497.25 383.877 478.4 417.346 459.025 427.524 407.515 415.307 345.797 477.315 325.297 512 294.515 512 255.334 512 217.559 474.169 184.881 415.438 164.663 428.59 100.395 417.447 53.326 383.504 33.754 350.782 14.884 303.573 31.331 256.72 72.106 207.975 28.827 161.233 15.615 127.327 35.241 94.634 54.166 85.306 103.283 97.232 164.238 39.709 184.293 -0.062 217.712 -0.062 255.334 Z" fill="#ffffff" fill-opacity="1" stroke="none"/>
  <path id="경로-1" d="M403 184.74 C398.16 183.08 393.279 181.542 388.361 180.128 389.176 176.814 389.931 173.485 390.623 170.143 401.704 116.351 394.459 73.016 369.716 58.75 345.994 45.069 307.195 59.334 268.01 93.433 264.149 96.801 260.374 100.266 256.688 103.824 254.219 101.458 251.706 99.137 249.152 96.865 208.086 60.401 166.922 45.037 142.206 59.344 118.505 73.064 111.485 113.805 121.462 164.783 122.454 169.831 123.575 174.854 124.823 179.846 118.998 181.5 113.373 183.263 107.992 185.139 59.847 201.924 29.098 228.232 29.098 255.519 29.098 283.703 62.105 311.972 112.254 329.111 116.32 330.494 120.421 331.776 124.551 332.955 123.209 338.333 122.018 343.746 120.979 349.19 111.467 399.284 118.896 439.059 142.534 452.694 166.948 466.772 207.925 452.301 247.826 417.423 250.98 414.666 254.146 411.742 257.315 408.677 261.308 412.529 265.407 416.269 269.608 419.893 308.258 453.151 346.429 466.581 370.046 452.909 394.439 438.789 402.364 396.06 392.072 344.073 391.287 340.102 390.371 336.046 389.345 331.917 392.223 331.067 395.047 330.19 397.802 329.276 449.936 312.004 483.854 284.079 483.854 255.519 483.854 228.134 452.116 201.648 403 184.74 Z" fill="#53c1de" fill-opacity="1" stroke="none"/>
  <path id="경로-2" d="M391.692 310.837 C389.206 311.66 386.654 312.455 384.054 313.226 378.298 295.006 370.529 275.631 361.026 255.615 370.097 236.073 377.563 216.948 383.158 198.844 387.809 200.193 392.326 201.612 396.677 203.111 438.76 217.596 464.429 239.016 464.429 255.519 464.429 273.099 436.705 295.921 391.694 310.837 Z M373.015 347.846 C377.565 370.834 378.215 391.618 375.201 407.865 372.492 422.465 367.046 432.198 360.311 436.096 345.98 444.392 315.33 433.608 282.28 405.167 278.49 401.906 274.672 398.424 270.844 394.741 283.658 380.726 296.464 364.432 308.962 346.339 330.948 344.389 351.718 341.199 370.554 336.845 371.479 340.589 372.304 344.258 373.015 347.846 Z M184.134 434.663 C170.132 439.608 158.981 439.749 152.24 435.862 137.895 427.591 131.933 395.651 140.066 352.813 141.033 347.751 142.141 342.716 143.387 337.715 162.013 341.835 182.632 344.799 204.67 346.586 217.251 364.291 230.427 380.565 243.706 394.816 240.884 397.546 237.996 400.206 235.042 402.793 217.398 418.218 199.717 429.159 184.136 434.663 Z M118.538 310.728 C96.363 303.149 78.05 293.299 65.498 282.552 54.219 272.891 48.524 263.301 48.524 255.519 48.524 238.961 73.212 217.839 114.388 203.483 119.556 201.689 124.775 200.047 130.039 198.559 135.731 217.068 143.196 236.421 152.204 255.992 143.079 275.854 135.508 295.515 129.764 314.242 125.993 313.163 122.251 311.991 118.538 310.728 Z M140.527 161.052 C131.98 117.373 137.655 84.425 151.938 76.157 167.154 67.35 200.794 79.909 236.252 111.392 238.518 113.404 240.794 115.511 243.074 117.691 229.864 131.878 216.808 148.029 204.336 165.631 182.948 167.613 162.474 170.797 143.653 175.062 142.493 170.418 141.451 165.746 140.527 161.05 Z M336.688 209.489 C332.243 201.811 327.631 194.227 322.86 186.747 337.37 188.578 351.271 191.013 364.325 193.994 360.406 206.555 355.522 219.689 349.77 233.153 345.567 225.178 341.206 217.29 336.688 209.489 Z M256.694 131.574 C265.654 141.28 274.628 152.12 283.455 163.88 265.549 163.034 247.613 163.03 229.707 163.868 238.542 152.217 247.593 141.393 256.694 131.574 Z M176.186 209.622 C171.725 217.359 167.445 225.201 163.35 233.138 157.692 219.721 152.852 206.528 148.9 193.789 161.875 190.885 175.711 188.512 190.127 186.711 185.302 194.237 180.653 201.877 176.187 209.621 Z M190.542 325.714 C175.649 324.051 161.603 321.799 148.632 318.976 152.647 306.01 157.594 292.534 163.372 278.829 167.484 286.772 171.783 294.618 176.264 302.359 180.838 310.257 185.598 318.043 190.542 325.714 Z M257.231 380.836 C248.023 370.9 238.84 359.912 229.87 348.092 238.576 348.434 247.454 348.607 256.476 348.607 265.746 348.607 274.909 348.4 283.928 347.997 275.072 360.032 266.131 371.037 257.231 380.836 Z M349.955 278.13 C356.033 291.985 361.157 305.389 365.226 318.134 352.04 321.143 337.805 323.566 322.805 325.366 327.612 317.744 332.266 310.031 336.766 302.225 341.34 294.293 345.738 286.258 349.955 278.13 Z M319.937 292.52 C313.048 304.487 305.772 316.226 298.121 327.72 284.628 328.684 270.685 329.181 256.476 329.181 242.326 329.181 228.56 328.741 215.303 327.881 207.452 316.414 200.039 304.655 193.078 292.627 186.149 280.663 179.678 268.441 173.677 255.986 179.662 243.527 186.115 231.298 193.019 219.325 L193.019 219.328 C199.922 207.352 207.278 195.643 215.069 184.225 228.594 183.203 242.461 182.667 256.478 182.667 270.558 182.667 284.443 183.207 297.964 184.237 305.676 195.637 312.985 207.307 319.875 219.222 326.804 231.169 333.341 243.337 339.479 255.709 333.405 268.209 326.888 280.486 319.939 292.52 Z M360.014 75.58 C375.241 84.363 381.164 119.778 371.596 166.222 370.969 169.247 370.287 172.263 369.551 175.263 350.685 170.91 330.197 167.669 308.747 165.657 296.251 147.864 283.304 131.684 270.307 117.681 273.712 114.398 277.199 111.199 280.763 108.09 314.338 78.87 345.716 67.334 360.014 75.58 Z" fill="#ffffff" fill-opacity="1" stroke="none"/>
  <path id="경로-3" d="M256.476 214.911 C278.904 214.911 297.084 233.093 297.084 255.519 297.084 277.947 278.904 296.129 256.476 296.129 234.05 296.129 215.868 277.947 215.868 255.519 215.868 233.093 234.05 214.911 256.476 214.911" fill="#53c1de" fill-opacity="1" stroke="none"/>
 </g>
</svg>
